<?xml version="1.0" encoding="UTF-8" standalone="no"?>
<!DOCTYPE svg PUBLIC "-//W3C//DTD SVG 1.1//EN" "http://www.w3.org/Graphics/SVG/1.1/DTD/svg11.dtd">
<svg width="100%" height="100%" viewBox="0 0 512 512" version="1.1" xmlns="http://www.w3.org/2000/svg" xmlns:xlink="http://www.w3.org/1999/xlink" xml:space="preserve" xmlns:serif="http://www.serif.com/" style="fill-rule:evenodd;clip-rule:evenodd;stroke-linejoin:round;stroke-miterlimit:2;">
    <path d="M428,224L288,224C261.668,224 240,202.332 240,176L240,36C240,33.806 238.194,32 236,32L144,32C108.891,32 80,60.891 80,96L80,416C80,451.109 108.891,480 144,480L368,480C403.109,480 432,451.109 432,416L432,228C432,225.806 430.194,224 428,224Z" style="fill:rgb(255,196,0);fill-rule:nonzero;"/>
    <path d="M419.22,188.59L275.41,44.78C275.035,44.408 274.528,44.198 274,44.198C272.906,44.198 272.005,45.096 272,46.19L272,176C272,184.777 279.223,192 288,192L417.81,192C418.904,191.995 419.802,191.094 419.802,190C419.802,189.472 419.592,188.965 419.22,188.59Z" style="fill:rgb(255,196,0);fill-rule:nonzero;"/>
</svg>
