<?xml version="1.0" encoding="UTF-8" standalone="no"?>
<!DOCTYPE svg PUBLIC "-//W3C//DTD SVG 1.1//EN" "http://www.w3.org/Graphics/SVG/1.1/DTD/svg11.dtd">
<svg width="100%" height="100%" viewBox="0 0 24 24" version="1.1" xmlns="http://www.w3.org/2000/svg" xmlns:xlink="http://www.w3.org/1999/xlink" xml:space="preserve" xmlns:serif="http://www.serif.com/" style="fill-rule:evenodd;clip-rule:evenodd;stroke-linejoin:round;stroke-miterlimit:2;">
    <g transform="matrix(0.084779,0,0,0.084779,-0.263311,-0.181163)">
        <g transform="matrix(1,0,0,1,-61.3761,-148.349)">
            <path d="M342.371,249.175C342.371,222.035 320.337,200.001 293.198,200.001L118.855,200.001C91.716,200.001 69.682,222.035 69.682,249.175L69.682,347.522C69.682,374.662 91.716,396.696 118.855,396.696L293.198,396.696C320.337,396.696 342.371,374.662 342.371,347.522L342.371,249.175Z" style="fill:rgb(28,127,254);"/>
        </g>
        <g transform="matrix(0.355973,0.205521,-0.22579,0.39108,26.6322,-52.0821)">
            <path d="M295.433,88.802C295.433,79.242 286.906,71.48 276.402,71.48L146.827,71.48C136.323,71.48 127.796,79.242 127.796,88.802C127.796,98.363 136.323,106.125 146.827,106.125L276.402,106.125C286.906,106.125 295.433,98.363 295.433,88.802Z" style="fill:rgb(28,127,254);"/>
        </g>
        <g transform="matrix(-0.355973,0.205521,0.22579,0.39108,262.669,-52.0821)">
            <path d="M295.433,88.802C295.433,79.242 286.906,71.48 276.402,71.48L146.827,71.48C136.323,71.48 127.796,79.242 127.796,88.802C127.796,98.363 136.323,106.125 146.827,106.125L276.402,106.125C286.906,106.125 295.433,98.363 295.433,88.802Z" style="fill:rgb(28,127,254);"/>
        </g>
        <g transform="matrix(12.6581,0,0,12.6581,-5172.09,-3224.92)">
            <g transform="matrix(12,0,0,12,414.759,271.019)">
                <path d="M0.438,-0.216L0.279,-0.711L0.054,-0.711L0.054,-0L0.226,-0L0.226,-0.166L0.209,-0.506L0.381,-0L0.494,-0L0.666,-0.506L0.649,-0.166L0.649,-0L0.821,-0L0.821,-0.711L0.596,-0.711L0.438,-0.216Z" style="fill:white;fill-rule:nonzero;"/>
            </g>
        </g>
        <g transform="matrix(2.53201,0,0,1,-139.015,-210.783)">
            <path d="M112.031,441.991C112.031,441.991 128.132,474.192 135.471,488.87C135.999,489.926 136.205,491.712 135.984,493.321C135.763,494.93 135.164,496.009 134.491,496.009L89.571,496.009C88.899,496.009 88.3,494.93 88.079,493.321C87.858,491.712 88.064,489.926 88.592,488.87C95.931,474.192 112.031,441.991 112.031,441.991Z" style="fill:rgb(28,127,254);"/>
        </g>
    </g>
</svg>
