<?xml version="1.0" encoding="UTF-8" standalone="no"?>
<!DOCTYPE svg PUBLIC "-//W3C//DTD SVG 1.1//EN" "http://www.w3.org/Graphics/SVG/1.1/DTD/svg11.dtd">
<svg width="100%" height="100%" viewBox="0 0 512 512" version="1.1" xmlns="http://www.w3.org/2000/svg" xmlns:xlink="http://www.w3.org/1999/xlink" xml:space="preserve" xmlns:serif="http://www.serif.com/" style="fill-rule:evenodd;clip-rule:evenodd;stroke-linejoin:round;stroke-miterlimit:2;">
    <path d="M340.75,344.49C346.66,323.79 350.57,299.74 352.06,276.65C352.064,276.57 352.067,276.49 352.067,276.41C352.067,273.99 350.076,272 347.657,272C347.638,272 347.619,272 347.6,272L276.54,272C276.527,272 276.513,272 276.5,272C274.085,272 272.092,273.975 272.07,276.39L272.07,331.69C272.096,333.994 273.911,335.914 276.21,336.07C296.235,337.688 316.021,341.508 335.21,347.46C337.544,348.162 340.043,346.822 340.75,344.49ZM323.58,377.31C308.356,372.865 292.758,369.823 276.98,368.22C276.817,368.202 276.653,368.193 276.489,368.193C274.103,368.193 272.125,370.125 272.07,372.51L272.07,437.75C272.144,440.149 274.138,442.082 276.538,442.082C277.345,442.082 278.137,441.864 278.83,441.45C294.73,432.18 307.83,416.61 319.67,396.02C321.61,392.66 324.56,386.87 326.34,383.33C326.623,382.746 326.771,382.106 326.771,381.457C326.771,379.517 325.455,377.807 323.58,377.31ZM235.29,368.4C219.531,369.899 203.945,372.852 188.73,377.22C186.09,377.98 184.98,381.62 186.18,384.01C187.97,387.57 190.18,392.12 192.07,395.52C205.07,418.52 218.91,433.02 233.31,441.45C234.003,441.864 234.795,442.082 235.602,442.082C238.002,442.082 239.996,440.149 240.07,437.75L240.07,372.48C240.052,370.211 238.18,368.354 235.91,368.354C235.703,368.354 235.495,368.369 235.29,368.4ZM235.6,272L164.54,272C164.521,272 164.503,272 164.484,272C162.065,272 160.074,273.99 160.074,276.41C160.074,276.486 160.076,276.563 160.08,276.64C161.56,299.7 165.45,323.8 171.34,344.48C171.898,346.371 173.646,347.677 175.618,347.677C176.062,347.677 176.505,347.611 176.93,347.48C196.117,341.528 215.904,337.718 235.93,336.12C238.233,335.969 240.054,334.047 240.08,331.74L240.08,276.4C240.064,273.981 238.069,272 235.65,272C235.633,272 235.617,272 235.6,272ZM277,143.78C292.768,142.303 308.346,139.24 323.5,134.64C325.37,134.135 326.678,132.426 326.678,130.489C326.678,129.849 326.535,129.218 326.26,128.64C324.47,125.07 321.99,119.96 320.09,116.55C307.8,94.55 293.95,79.2 278.85,70.55C278.159,70.141 277.37,69.925 276.567,69.925C274.168,69.925 272.173,71.852 272.09,74.25L272.09,139.48C272.146,141.87 274.128,143.806 276.519,143.806C276.68,143.806 276.84,143.797 277,143.78ZM276.54,240L347.6,240C347.625,240 347.649,240.001 347.674,240.001C350.082,240.001 352.064,238.019 352.064,235.611C352.064,235.547 352.063,235.484 352.06,235.42C350.58,212.65 346.79,187.62 340.9,167.2C340.327,165.332 338.59,164.048 336.636,164.048C336.186,164.048 335.739,164.116 335.31,164.25C316.31,169.99 296.52,174.68 276.22,176.25C273.931,176.38 272.108,178.278 272.07,180.57L272.07,235.68C272.114,238.09 274.13,240.039 276.54,240ZM233.31,70.56C217.89,79.13 204.14,94.99 191.84,116.93C189.93,120.34 187.65,125.04 185.84,128.6C185.568,129.176 185.426,129.805 185.426,130.442C185.426,132.379 186.732,134.089 188.6,134.6C203.748,139.285 219.347,142.359 235.14,143.77C235.3,143.787 235.461,143.796 235.621,143.796C238.009,143.796 239.989,141.867 240.05,139.48L240.05,74.26C239.952,71.868 237.958,69.953 235.564,69.953C234.772,69.953 233.995,70.163 233.31,70.56ZM235.92,176.26C215.62,174.71 195.81,170.02 176.83,164.26C176.401,164.126 175.954,164.058 175.504,164.058C173.55,164.058 171.813,165.342 171.24,167.21C165.35,187.63 161.56,212.66 160.08,235.43C160.077,235.494 160.076,235.557 160.076,235.621C160.076,238.029 162.058,240.011 164.466,240.011C164.491,240.011 164.515,240.01 164.54,240.01L235.6,240.01C235.623,240.01 235.647,240.011 235.67,240.011C238.062,240.011 240.038,238.061 240.07,235.67L240.07,180.58C240.032,178.288 238.209,176.39 235.92,176.26Z" style="fill:rgb(0,158,255);fill-rule:nonzero;"/>
    <path d="M414.39,97.61C372.337,55.141 314.987,31.22 255.22,31.22C132.338,31.22 31.22,132.338 31.22,255.22C31.22,314.987 55.141,372.337 97.61,414.39C139.663,456.859 197.013,480.78 256.78,480.78C379.662,480.78 480.78,379.662 480.78,256.78C480.78,197.013 456.859,139.663 414.39,97.61ZM176.6,430.85C172.094,424.523 167.929,417.96 164.12,411.19C162.12,407.5 159.28,401.93 157.39,398.06C156.188,395.513 153.613,393.881 150.797,393.881C149.489,393.881 148.205,394.233 147.08,394.9C142.78,397.31 137.08,400.62 132.95,403.33C124.289,396.747 116.384,389.224 109.38,380.9C119.066,374.063 129.229,367.928 139.79,362.54C141.65,361.54 142.56,360.4 141.97,358.36C134.232,331.579 129.506,304.019 127.88,276.19C127.78,273.893 125.879,272.049 123.58,272.02L66.84,272.02C65.847,272.031 64.989,271.302 64.84,270.32C64.212,265.574 63.931,260.787 64,256C63.932,251.222 64.219,246.445 64.86,241.71C65.009,240.728 65.867,239.999 66.86,240.01L123.6,240.01C125.89,240.01 127.77,238.69 127.89,236.38C129.495,208.667 134.191,181.22 141.89,154.55C142.479,152.55 141.555,150.393 139.7,149.44C129.366,144.145 119.397,138.165 109.86,131.54C116.827,123.218 124.576,115.583 133,108.74C137.08,111.42 142.4,114.45 146.66,116.85C147.848,117.526 149.192,117.881 150.559,117.881C153.578,117.881 156.344,116.147 157.66,113.43C159.54,109.56 161.66,105.25 163.72,101.55C167.545,94.696 171.731,88.05 176.26,81.64C201.193,69.894 228.439,63.866 256,64C284.94,64 311.9,71 336.53,82.46C340.879,88.566 344.885,94.909 348.53,101.46C351.12,106.12 353.87,111.83 356.19,116.78C356.898,118.278 358.412,119.237 360.069,119.237C360.781,119.237 361.483,119.059 362.11,118.72C367.49,115.81 373.32,112.46 378.45,109.09C386.898,116 394.667,123.702 401.65,132.09C392.374,138.523 382.664,144.307 372.59,149.4C370.731,150.354 369.81,152.519 370.41,154.52C378.234,181.009 382.884,208.334 384.26,235.92C384.371,238.204 386.273,240.027 388.56,240.04L445.18,239.97C446.173,239.959 447.031,240.688 447.18,241.67C448.347,251.174 448.347,260.786 447.18,270.29C447.04,271.279 446.179,272.02 445.18,272.01L388.51,272.01C386.209,272.034 384.305,273.881 384.21,276.18C382.653,303.715 378,330.987 370.34,357.48C369.745,359.503 370.666,361.685 372.53,362.67C377.53,365.26 383.1,368.15 387.9,371.09C392.7,374.03 397.45,377.17 402.03,380.43C395.101,388.779 387.4,396.456 379.03,403.36C376.59,401.75 373.69,399.92 371.19,398.42C369.47,397.42 366.3,395.65 364.54,394.66C360.72,392.52 356.66,394.12 354.75,398.06C352.84,402 349.92,407.65 347.88,411.31C344.121,418.039 339.998,424.559 335.53,430.84C310.91,442.37 284.94,448 256,448C227.06,448 201.23,442.37 176.6,430.85Z" style="fill:rgb(0,158,255);fill-rule:nonzero;"/>
</svg>
